<?xml version="1.0" encoding="UTF-8"?>
<!DOCTYPE svg PUBLIC "-//W3C//DTD SVG 1.1//EN" "http://www.w3.org/Graphics/SVG/1.1/DTD/svg11.dtd">
<svg xmlns="http://www.w3.org/2000/svg" version="1.1" width="174px" height="186px" style="shape-rendering:geometricPrecision; text-rendering:geometricPrecision; image-rendering:optimizeQuality; fill-rule:evenodd; clip-rule:evenodd" xmlns:xlink="http://www.w3.org/1999/xlink">
<g><path style="opacity:1" fill="#fdfdfe" d="M 83.5,11.5 C 108.581,20.6952 133.581,30.1952 158.5,40C 162.834,85.655 148.168,123.988 114.5,155C 105.403,161.751 95.5697,167.251 85,171.5C 49.2164,156.38 26.2164,130.047 16,92.5C 10.696,75.2724 9.19596,57.7724 11.5,40C 35.7185,30.7666 59.7185,21.2666 83.5,11.5 Z M 85.5,33.5 C 85.1681,72.0036 85.5015,110.337 86.5,148.5 C 92.4456,145.523 98.1123,142.023 103.5,138 C 127.596,115.146 139.262,87.1464 138.5,54 C 120.927,46.8657 103.261,40.0324 85.5,33.5 Z"/></g>
</svg>